<?xml version="1.0" standalone="no"?>
<!DOCTYPE svg PUBLIC "-//W3C//DTD SVG 20010904//EN"
 "http://www.w3.org/TR/2001/REC-SVG-20010904/DTD/svg10.dtd">
<svg version="1.0" xmlns="http://www.w3.org/2000/svg"
 width="270.000000pt" height="270.000000pt" viewBox="0 0 270.000000 270.000000"
 preserveAspectRatio="xMidYMid meet">
<metadata>
Created by potrace 1.11, written by Peter Selinger 2001-2013
</metadata>
<g transform="translate(0.000000,270.000000) scale(0.100000,-0.100000)"
fill="#000000" stroke="none">
<path d="M48 2683 c-14 -9 -31 -27 -37 -40 -15 -34 -15 -2552 0 -2586 6 -13
23 -31 39 -40 26 -16 131 -17 1299 -17 928 0 1277 3 1295 11 59 27 56 -39 56
1343 0 925 -3 1272 -11 1290 -27 59 40 56 -1346 56 -1163 -1 -1270 -2 -1295
-17z"/>
</g>
</svg>
